<svg width="54" height="24" viewBox="0 0 54 24" fill="none" xmlns="http://www.w3.org/2000/svg">
<g clip-path="url(#clip0_10516_218863)">
<mask id="mask0_10516_218863" style="mask-type:luminance" maskUnits="userSpaceOnUse" x="-11" y="-9" width="74" height="43">
<path d="M63 -8.125H-11V33.5001H63V-8.125Z" fill="white"/>
</mask>
<g mask="url(#mask0_10516_218863)">
<path d="M6.61465 12.9422C6.48331 12.7758 6.32749 12.6355 6.15128 12.5245C6.10804 12.4968 6.06318 12.4715 6.01831 12.447C6.13823 12.3956 6.2557 12.3344 6.36991 12.2643C6.61547 12.1134 6.83655 11.929 7.02826 11.7152C7.22161 11.4999 7.37579 11.2511 7.48755 10.9778C7.60013 10.702 7.65887 10.4075 7.66295 10.1016C7.66703 9.79813 7.60503 9.51505 7.4794 9.2597C7.35295 9.00436 7.16042 8.78083 6.90589 8.59646C6.65789 8.41698 6.34462 8.27422 5.97588 8.17225C5.61122 8.0719 5.18212 8.02051 4.7008 8.02051H4.69672C4.15585 8.02051 3.6476 8.06619 3.18586 8.15511C2.72005 8.24567 2.30888 8.37538 1.96217 8.54017L1.88549 8.57688L0.158447 16.703L0.266133 16.7666C0.554109 16.9355 0.938348 17.0677 1.40743 17.1599C1.86754 17.2504 2.38802 17.2961 2.95499 17.2961H2.95907C3.65821 17.2961 4.28311 17.2129 4.81664 17.0497C5.36159 16.8825 5.82252 16.6092 6.18636 16.2364C6.43028 15.9867 6.63342 15.6719 6.79168 15.3007C6.94994 14.9287 7.03316 14.5583 7.03805 14.201C7.04131 13.9538 7.00379 13.7213 6.9271 13.5092C6.85123 13.2995 6.746 13.1094 6.61628 12.9438M4.3965 15.1889C4.25129 15.3741 4.07182 15.5103 3.86134 15.5952C3.64353 15.6833 3.39389 15.7273 3.11815 15.7273C2.96805 15.7273 2.83997 15.7175 2.73799 15.6988C2.69068 15.6898 2.64581 15.6792 2.6042 15.6661L3.12876 13.1608H3.47302C3.96005 13.1608 4.3084 13.2334 4.5099 13.3754C4.69427 13.5059 4.78238 13.7082 4.7783 13.9946C4.77585 14.1953 4.73995 14.4106 4.67306 14.6342C4.6078 14.852 4.5148 15.0388 4.39732 15.1889M3.67045 11.8303C3.63782 11.8303 3.55868 11.8319 3.43142 11.8368H3.41918L3.88745 9.59173C3.95353 9.57378 4.02695 9.55828 4.1069 9.54523C4.22763 9.52565 4.36469 9.51586 4.51479 9.51586H4.51643C4.87375 9.51586 5.12746 9.58928 5.27022 9.73368C5.37628 9.84136 5.42686 9.9931 5.42359 10.1979C5.42114 10.4059 5.38199 10.6237 5.30775 10.8456C5.23596 11.061 5.13317 11.2413 5.00672 11.3783C4.86151 11.5268 4.68366 11.6402 4.47808 11.7144C4.26679 11.7911 3.99513 11.8295 3.67045 11.8295" fill="white"/>
<path d="M42.216 10.1274C42.3066 10.027 42.4224 9.94298 42.5603 9.87772C42.6949 9.81408 42.8515 9.78145 43.0261 9.78145C43.2635 9.78145 43.4732 9.81245 43.6469 9.87282C43.824 9.93482 43.9684 10.0042 44.0744 10.0784L44.2327 10.1894L45.073 8.65892L44.9432 8.57C44.7213 8.41826 44.4464 8.28936 44.1258 8.1882C43.8036 8.08623 43.4112 8.03484 42.9592 8.03484H42.9568C42.3833 8.03484 41.8816 8.14007 41.4647 8.34892C41.0519 8.55531 40.7035 8.81718 40.4319 9.12719C40.1594 9.43719 39.9538 9.78472 39.8217 10.1616C39.6895 10.5352 39.621 10.8918 39.6161 11.2197C39.6112 11.5632 39.6642 11.8601 39.7719 12.1008C39.878 12.3365 40.0142 12.5437 40.179 12.7167C40.3373 12.8839 40.5135 13.0357 40.7036 13.1686C40.8814 13.2935 41.047 13.415 41.1955 13.53C41.3333 13.6369 41.4476 13.7552 41.5365 13.8825C41.6156 13.9967 41.6523 14.128 41.6507 14.2863C41.6458 14.6354 41.5308 14.9104 41.2983 15.1265C41.0633 15.3452 40.7696 15.4512 40.3993 15.4512C40.1521 15.4512 39.931 15.4178 39.7409 15.3533C39.55 15.2881 39.404 15.2179 39.3069 15.1453L39.1462 15.0246L39.0605 15.1812C39.0728 15.1478 39.0858 15.1135 39.0972 15.0792C39.2245 14.6983 39.2914 14.3352 39.2955 13.9991C39.3004 13.654 39.2433 13.3546 39.1258 13.1083C39.0116 12.8676 38.8615 12.6563 38.6796 12.4785C38.505 12.308 38.3165 12.1562 38.1183 12.0273C37.9364 11.9099 37.7585 11.7883 37.5905 11.6668C37.4371 11.5558 37.3107 11.4343 37.2144 11.3054C37.1304 11.1928 37.0904 11.0582 37.092 10.8942C37.0937 10.7539 37.1189 10.6136 37.1679 10.4765C37.2144 10.3435 37.2837 10.2261 37.3751 10.1257C37.4657 10.0254 37.5815 9.94135 37.7194 9.87608C37.854 9.81245 38.0106 9.77982 38.1852 9.77982C38.4234 9.77982 38.6322 9.81082 38.806 9.87119C38.983 9.93319 39.1274 10.0025 39.2343 10.0768L39.3926 10.1877L40.2328 8.65729L40.1031 8.56836C39.8812 8.41663 39.6063 8.28773 39.2857 8.18657C38.9635 8.0846 38.5711 8.0332 38.1191 8.0332H38.1167C37.5432 8.0332 37.0406 8.13926 36.6238 8.34728C36.2101 8.55368 35.8626 8.81555 35.591 9.12555C35.3185 9.43556 35.1129 9.78308 34.9807 10.16C34.8486 10.5336 34.7801 10.8893 34.7752 11.2181C34.7703 11.5615 34.8233 11.8585 34.931 12.0983C35.037 12.3341 35.1733 12.5413 35.3381 12.7142C35.4963 12.8815 35.6725 13.0332 35.8626 13.1662C36.0388 13.2894 36.2044 13.4109 36.3545 13.5268C36.4924 13.6336 36.6066 13.7527 36.6947 13.88C36.7739 13.9942 36.8106 14.1256 36.8089 14.2838C36.804 14.633 36.689 14.9079 36.4565 15.1241C36.2216 15.3427 35.9279 15.4496 35.5575 15.4496C35.3103 15.4496 35.0892 15.4162 34.8992 15.3517C34.7083 15.2864 34.5622 15.2163 34.4652 15.1437L34.3045 15.0229L33.4038 16.6782L33.5213 16.7687C33.7473 16.9425 34.0548 17.0779 34.4358 17.1717C34.8062 17.2631 35.25 17.3096 35.7549 17.3096H35.7574C36.3945 17.3096 36.946 17.1978 37.3947 16.9768C37.8417 16.7573 38.2088 16.4799 38.4862 16.1512C38.5384 16.09 38.5866 16.0264 38.6339 15.9627L38.2439 16.679L38.3614 16.7696C38.5874 16.9433 38.8957 17.0787 39.2759 17.1726C39.6463 17.2639 40.0901 17.3104 40.595 17.3104H40.5975C41.2346 17.3104 41.7861 17.1987 42.2348 16.9776C42.681 16.7581 43.049 16.4808 43.3263 16.152C43.6021 15.8257 43.8077 15.4651 43.9357 15.08C44.063 14.6991 44.1299 14.3352 44.134 13.9999C44.1389 13.6548 44.0818 13.3555 43.9643 13.1091C43.8501 12.8684 43.7 12.6571 43.518 12.4793C43.3435 12.3088 43.155 12.157 42.9568 12.029C42.7724 11.9099 42.5954 11.7883 42.429 11.6684C42.2756 11.5574 42.1491 11.4359 42.0529 11.307C41.9688 11.1944 41.9289 11.0606 41.9305 10.8958C41.9321 10.7555 41.9574 10.6152 42.0056 10.4781C42.0521 10.3452 42.1214 10.2277 42.2128 10.1274" fill="white"/>
<path d="M14.7874 8.14828H12.6002L11.2884 14.3646C11.2191 14.7016 11.0788 14.9585 10.8699 15.129C10.6586 15.302 10.4253 15.386 10.1577 15.386C9.96603 15.386 9.82 15.3387 9.71232 15.2416C9.61034 15.1494 9.56221 15.0026 9.56547 14.7929C9.56547 14.7399 9.57037 14.6836 9.57853 14.6241C9.58668 14.5645 9.5981 14.5033 9.61524 14.4356L10.9417 8.14746H8.62241L7.29756 14.3818C7.27961 14.4846 7.26411 14.5857 7.25025 14.6844C7.23556 14.7889 7.2274 14.8916 7.22659 14.9895C7.22169 15.3493 7.28369 15.6773 7.41096 15.9644C7.53904 16.2524 7.72341 16.4988 7.95836 16.6954C8.19086 16.8903 8.47149 17.0413 8.79373 17.1441C9.11189 17.246 9.46595 17.2974 9.84529 17.2982H9.84692C10.2826 17.2982 10.7011 17.2338 11.0902 17.1073C11.481 16.9801 11.8391 16.7924 12.1556 16.551C12.4738 16.3079 12.7446 16.0085 12.9608 15.6601C13.177 15.3134 13.3361 14.9153 13.4348 14.4764L14.7866 8.14991L14.7874 8.14828Z" fill="white"/>
<path d="M28.0088 8.15511L27.0469 12.7056C27.0314 12.7741 27.0184 12.8386 27.0061 12.9006C26.9858 12.8402 26.9645 12.7766 26.9417 12.7089L25.2734 8.1543H23.3375L21.4253 17.1778H23.4297L24.4821 12.2121C24.4984 12.1378 24.5131 12.0628 24.5269 11.9869C24.549 12.0538 24.5734 12.1231 24.5987 12.1957L26.3943 17.1794H28.1001L30.0124 8.15593H28.0079L28.0088 8.15511Z" fill="white"/>
<path d="M19.0024 13.9906C19.0073 13.6456 18.9502 13.3462 18.8327 13.1006C18.7185 12.86 18.5684 12.6478 18.3865 12.4708C18.2119 12.3003 18.0235 12.1486 17.8252 12.0205C17.6433 11.903 17.4655 11.7815 17.2982 11.6599C17.1449 11.549 17.0184 11.4274 16.9222 11.2985C16.8381 11.1859 16.7982 11.0522 16.7998 10.8874C16.8014 10.747 16.8267 10.6067 16.8757 10.4697C16.9222 10.3367 16.9915 10.2192 17.0829 10.1189C17.1734 10.0185 17.2893 9.93451 17.4271 9.86925C17.5617 9.8048 17.7184 9.77299 17.893 9.77299C18.1303 9.77299 18.34 9.80399 18.5138 9.86435C18.6908 9.92635 18.8352 9.9957 18.9421 10.0699L19.1003 10.1809L19.9406 8.65045L19.8109 8.56153C19.589 8.40979 19.3141 8.2809 18.9935 8.17974C18.6712 8.07776 18.2788 8.02637 17.8269 8.02637H17.8244C17.2509 8.02637 16.7484 8.13242 16.3315 8.34045C15.9187 8.54685 15.5712 8.80871 15.2979 9.11872C15.0254 9.42872 14.8207 9.77625 14.6877 10.1531C14.5555 10.5268 14.487 10.8825 14.4821 11.2112C14.4772 11.5547 14.5302 11.8516 14.6379 12.0923C14.7432 12.3281 14.8802 12.5353 15.045 12.7082C15.2033 12.8755 15.3795 13.0272 15.5696 13.1602C15.745 13.2825 15.9106 13.4041 16.0615 13.5207C16.1994 13.6276 16.3136 13.7459 16.4025 13.874C16.4816 13.9882 16.5183 14.1195 16.5167 14.2778C16.5118 14.627 16.3968 14.9019 16.1643 15.1181C15.9293 15.3367 15.6356 15.4436 15.2653 15.4436C15.0181 15.4436 14.797 15.4101 14.6069 15.3457C14.416 15.2804 14.27 15.2103 14.1729 15.1377L14.0122 15.0169L13.1116 16.6722L13.229 16.7627C13.455 16.9365 13.7634 17.0727 14.1436 17.1665C14.5139 17.2579 14.9577 17.3044 15.4627 17.3044H15.4651C16.1023 17.3044 16.6538 17.1926 17.1024 16.9724C17.5495 16.7529 17.9166 16.4756 18.194 16.1468C18.4697 15.8205 18.6753 15.4599 18.8034 15.0748C18.9306 14.6939 18.9975 14.33 19.0016 13.9947" fill="white"/>
<path d="M31.1531 15.4591L31.5847 13.422L33.5989 13.4229L33.957 11.7391L31.9428 11.7382L32.336 9.87823L34.6415 9.87905L34.9988 8.15772L30.3749 8.15527L28.4626 17.1796L33.0866 17.1812L33.4594 15.4599L31.1531 15.4591Z" fill="white"/>
<path d="M20.621 8.15137L18.7087 17.1757L21.0411 17.1765L22.9533 8.15218L20.621 8.15137Z" fill="white"/>
<path d="M50.6693 8.30355H50.4123C49.692 8.30355 48.9928 8.30518 48.4715 8.30926C46.6996 8.3215 45.0672 9.2923 44.5076 10.8097C44.3134 11.3367 43.8868 12.5791 43.5392 13.638C43.5066 13.594 43.4715 13.5524 43.4348 13.5116C43.5719 13.6772 43.6257 14.068 43.7456 14.6594C44.4448 14.3649 45.3748 14.1136 46.4475 14.0957C46.862 14.0884 47.8262 14.0957 48.3769 14.0957C49.9383 14.0957 49.9905 13.3656 50.0281 12.2903H46.6433C46.9533 12.1133 47.2576 12.0423 47.6109 12.0423C48.2994 12.0423 49.4276 12.0489 49.9081 12.0423C50.83 12.0309 51.41 11.8188 51.6123 11.0259C51.676 10.7754 51.7347 10.4817 51.7902 10.2476C51.2387 10.2451 48.8419 10.2476 47.7324 10.2476C47.991 10.0779 48.4014 9.9898 48.8174 9.9743C48.9153 9.97022 49.559 9.97348 50.2663 9.97593C51.1082 9.98001 52.0398 9.98246 52.2487 9.9743C52.8728 9.95146 53.465 9.70672 53.6567 8.79058C53.6902 8.63232 53.7236 8.47405 53.7587 8.30845C53.7587 8.30845 52.2601 8.30355 50.7427 8.30273H50.6685L50.6693 8.30355Z" fill="white"/>
</g>
</g>
<defs>
<clipPath id="clip0_10516_218863">
<rect width="54" height="24" fill="white"/>
</clipPath>
</defs>
</svg>
