<svg width="54" height="24" viewBox="0 0 54 24" fill="none" xmlns="http://www.w3.org/2000/svg">
<path d="M9.12918 7.6424C9.09539 7.52456 9.08451 7.401 9.09715 7.27882C9.10979 7.15663 9.14571 7.03823 9.20284 6.93039C9.25998 6.82255 9.33721 6.72741 9.4301 6.65042C9.52299 6.57344 9.62972 6.51612 9.74414 6.48177C12.624 5.61838 18.9072 3.64182 22.3393 2.65914C25.3732 1.78851 27.9149 1.85178 29.6907 2.84303L29.2592 3.66423C27.7167 2.80348 25.3457 2.76591 22.5829 3.55878C18.5191 4.72336 9.25192 7.60549 9.12918 7.6424Z" fill="white"/>
<path d="M30.3299 19.2674C30.0274 19.609 29.6566 19.8788 29.2432 20.0583C28.8424 20.2396 28.4099 20.3344 27.9723 20.3371C27.5925 20.3421 27.2151 20.2751 26.8588 20.1394C26.5382 20.0154 26.2491 19.8177 26.0137 19.5614C25.7828 19.3061 25.6125 18.999 25.5163 18.6644C25.4097 18.2843 25.3857 17.8846 25.446 17.4939C25.4972 17.0813 25.6276 16.6834 25.8296 16.3234C26.0222 15.9808 26.2729 15.6768 26.5698 15.4257C26.8686 15.1747 27.2082 14.9804 27.5728 14.8516C27.9486 14.7187 28.3434 14.6518 28.7407 14.6539C29.0821 14.6462 29.4212 14.7136 29.7354 14.8516C30.0139 14.9772 30.2562 15.175 30.4386 15.4257C30.6259 15.6927 30.7532 15.9993 30.8112 16.3234C30.8805 16.7098 30.8859 17.1056 30.8272 17.4939L30.7518 18.0152H26.9892C27.0109 18.3351 27.1174 18.5895 27.3088 18.7784C27.5001 18.9673 27.7541 19.0622 28.0708 19.0631C28.3152 19.0691 28.5565 19.0055 28.7682 18.8792C28.9727 18.7511 29.1569 18.5913 29.3141 18.4054L30.3299 19.2674ZM29.2815 16.8816C29.3059 16.755 29.3031 16.6245 29.2731 16.4992C29.2432 16.374 29.1869 16.257 29.1083 16.1566C28.9498 15.9563 28.7226 15.8559 28.4268 15.8554C28.2606 15.853 28.0955 15.8835 27.9404 15.945C27.8035 16.0004 27.6759 16.0773 27.5619 16.1731C27.4552 16.2658 27.364 16.376 27.2922 16.4993C27.222 16.6181 27.1711 16.7479 27.1413 16.8836L29.2815 16.8816Z" fill="white"/>
<path d="M31.4948 19.08C31.4157 18.7323 31.3921 18.3737 31.4251 18.0182C31.6316 16.1023 32.6972 9.04297 32.6972 9.04297C33.5416 9.17478 34.1163 10.0316 33.9815 10.9688L32.9523 18.2667C32.9184 19.0213 33.1357 19.5394 33.8248 20.2024H32.0349C31.7984 19.8788 31.5664 19.4234 31.4948 19.08Z" fill="white"/>
<path d="M38.9525 20.2021H37.3953L37.4931 19.4646H37.4714C37.3923 19.5766 37.3035 19.681 37.2061 19.7763C37.0957 19.8851 36.9721 19.9788 36.8385 20.0551C36.6901 20.1402 36.5326 20.2074 36.3693 20.2555C36.1901 20.308 36.0046 20.3341 35.8183 20.3332C35.4074 20.3332 35.0831 20.2673 34.8453 20.1355C34.6197 20.0186 34.4374 19.8288 34.3263 19.5951C34.2126 19.3397 34.1535 19.0621 34.153 18.7811C34.1473 18.4418 34.1686 18.1025 34.2169 17.7668L34.6273 14.7852H36.2491L35.8816 17.4379C35.8605 17.5941 35.8419 17.7556 35.8279 17.923C35.8124 18.0776 35.8234 18.2337 35.8605 18.3844C35.8922 18.5187 35.964 18.6395 36.0657 18.7297C36.1667 18.8193 36.3214 18.8615 36.5304 18.8615C36.712 18.8679 36.8923 18.8278 37.0552 18.7449C37.1913 18.6704 37.3079 18.5633 37.3953 18.4325C37.4843 18.2977 37.5519 18.149 37.5954 17.9922C37.6433 17.8245 37.6778 17.653 37.6983 17.4794L38.0659 14.7852H39.6876L38.9525 20.2021Z" fill="white"/>
<path d="M41.9041 17.3035L40.4984 14.7852H42.4117L43.1366 16.2562L44.2393 14.7852H46.0452L43.9906 17.3041L45.6233 20.2041H43.7094L42.801 18.3982L41.3307 20.2041H39.4373L41.9041 17.3035Z" fill="white"/>
<path d="M50.4652 19.2674C50.1626 19.6089 49.7918 19.8787 49.3784 20.0583C48.9779 20.2396 48.5456 20.3345 48.1082 20.3371C47.7284 20.3421 47.351 20.2751 46.9947 20.1394C46.6729 20.017 46.3825 19.8205 46.1457 19.5647C45.9148 19.3094 45.7446 19.0023 45.6484 18.6677C45.5414 18.2876 45.5174 17.8879 45.5781 17.4972C45.6295 17.0847 45.7599 16.6868 45.9616 16.3266C46.1543 15.984 46.4052 15.6799 46.7025 15.429C47.0017 15.1764 47.3422 14.9809 47.7081 14.8516C48.0839 14.7187 48.4787 14.6518 48.876 14.6539C49.2174 14.6462 49.5565 14.7136 49.8707 14.8516C50.1492 14.9771 50.3915 15.1749 50.5738 15.4257C50.7603 15.6929 50.8867 15.9995 50.944 16.3234C51.0129 16.7098 51.0183 17.1055 50.9599 17.4939L50.8871 18.0152H47.1244C47.1455 18.3348 47.2523 18.5892 47.4441 18.7784C47.6358 18.9675 47.8915 19.0631 48.2067 19.0631C48.4511 19.0691 48.6924 19.0054 48.9041 18.8792C49.1086 18.7511 49.2928 18.5913 49.45 18.4054L50.4652 19.2674ZM49.4161 16.8816C49.4408 16.7551 49.4381 16.6245 49.4083 16.4992C49.3785 16.3739 49.3222 16.2569 49.2435 16.1566C49.085 15.9562 48.8579 15.8558 48.5621 15.8554C48.3959 15.853 48.2307 15.8834 48.0756 15.945C47.9387 16.0001 47.811 16.0771 47.6972 16.1731C47.5907 16.2658 47.4998 16.376 47.4281 16.4993C47.3575 16.618 47.3063 16.7478 47.2766 16.8836L49.4161 16.8816Z" fill="white"/>
<path d="M20.2658 19.3129L16.801 21.6296L19.1733 6.48145C19.5323 6.48138 19.8872 6.56071 20.2139 6.71409C20.5407 6.86747 20.8317 7.09133 21.0674 7.37056C21.3031 7.64979 21.478 7.9779 21.5802 8.33274C21.6824 8.68758 21.7096 9.0609 21.66 9.4275L20.2658 19.3129Z" fill="white"/>
<path d="M24.5748 16.286C30.1037 11.9012 31.9863 8.68756 31.7805 6.3149C31.45 2.50809 27.8127 1.08581 22.5753 2.5885C27.236 1.59132 30.502 4.05757 29.8212 7.11106C29.2081 9.85808 27.2002 11.3865 20.9867 13.9654C17.0029 16.5562 16.7983 21.6318 16.7983 21.6318C16.7983 21.6318 22.2179 18.1565 24.5729 16.288" fill="white"/>
<path d="M6.45187 10.7887C6.22073 10.8567 6.02522 11.0165 5.90834 11.233C5.79146 11.4495 5.76278 11.7051 5.8286 11.9434L17.7717 8.31456L17.9322 7.29102L6.45187 10.7887Z" fill="white"/>
<path d="M3.03518 16.3032L17.1914 12.0232L17.3506 11.0049L3.65781 15.1478C3.54325 15.1814 3.43624 15.2379 3.34291 15.3142C3.24959 15.3904 3.17177 15.4849 3.11393 15.5923C3.05609 15.6996 3.01936 15.8176 3.00585 15.9396C2.99233 16.0616 3.0023 16.1852 3.03518 16.3032Z" fill="white"/>
<path d="M3.95922 19.7636L16.5857 15.8969L16.7442 14.8779L4.58249 18.6089C4.35134 18.6769 4.15583 18.8367 4.03895 19.0532C3.92207 19.2698 3.89339 19.5253 3.95922 19.7636Z" fill="white"/>
</svg>
