<svg width="54" height="24" viewBox="0 0 54 24" fill="none" xmlns="http://www.w3.org/2000/svg">
<g clip-path="url(#clip0_6415_123328)">
<path d="M30.2102 12.8209C29.5447 13.1758 28.7888 13.3328 28.0343 13.2728C27.2799 13.2127 26.5594 12.9382 25.9604 12.4826L34.7649 7.79395C35.0581 8.32766 35.1241 8.95415 34.9485 9.53576C34.7728 10.1174 34.3698 10.6065 33.8281 10.8957L30.2102 12.8209Z" fill="url(#paint0_radial_6415_123328)"/>
<path d="M30.2102 12.8209C29.5447 13.1758 28.7888 13.3328 28.0343 13.2728C27.2799 13.2127 26.5594 12.9382 25.9604 12.4826L34.7649 7.79395C35.0581 8.32766 35.1241 8.95415 34.9485 9.53576C34.7728 10.1174 34.3698 10.6065 33.8281 10.8957L30.2102 12.8209Z" fill="white"/>
<path d="M35.7663 1.10547L26.4886 6.04411C26.051 6.27756 25.6628 6.59114 25.3447 6.96798C25.994 7.31943 26.5699 7.78872 27.0419 8.35107L34.8267 4.20723C35.3686 3.91824 35.772 3.4293 35.9481 2.84775C36.1243 2.2662 36.0589 1.63958 35.7663 1.10547V1.10547Z" fill="white"/>
<path d="M35.7663 1.10547L26.4886 6.04411C26.051 6.27756 25.6628 6.59114 25.3447 6.96798C25.994 7.31943 26.5699 7.78872 27.0419 8.35107L34.8267 4.20723C35.3686 3.91824 35.772 3.4293 35.9481 2.84775C36.1243 2.2662 36.0589 1.63958 35.7663 1.10547V1.10547Z" fill="white"/>
<path d="M35.2658 4.4502L27.3154 8.68234C27.7827 9.29417 28.1758 9.9576 28.4869 10.6592L34.3276 7.54924C34.8691 7.26055 35.2721 6.77199 35.448 6.19091C35.6239 5.60982 35.5584 4.98374 35.2658 4.4502Z" fill="white"/>
<path d="M35.2658 4.4502L27.3154 8.68234C27.7827 9.29417 28.1758 9.9576 28.4869 10.6592L34.3276 7.54924C34.8691 7.26055 35.2721 6.77199 35.448 6.19091C35.6239 5.60982 35.5584 4.98374 35.2658 4.4502Z" fill="white"/>
<path d="M25.5892 16.4908C25.9721 16.1301 26.399 15.8175 26.86 15.5602C27.1541 15.3981 27.4661 15.27 27.79 15.1784C28.0419 15.1099 28.3056 15.0942 28.5641 15.1322C28.4701 15.6326 28.3462 16.1271 28.1929 16.6131C28.0547 17.0436 27.8807 17.4621 27.6727 17.8644C27.474 18.2484 27.2379 18.6124 26.9676 18.9513C26.6886 19.2991 26.3832 19.6257 26.0542 19.9282C24.6588 21.1682 22.975 21.7886 21.0028 21.7895C20.3268 21.7901 19.654 21.6986 19.0035 21.5178C18.3466 21.3481 17.7209 21.0781 17.149 20.7176C15.9623 20.0121 14.9821 19.015 14.3048 17.8241C13.6275 16.6332 13.2763 15.2893 13.2856 13.9244C13.2844 13.4159 13.3338 12.9085 13.4332 12.4095C13.5323 11.9123 13.6749 11.4246 13.8596 10.9517C14.2575 10.0078 14.836 9.148 15.5636 8.41919C16.2727 7.69321 17.1205 7.11236 18.0583 6.71002C19.0026 6.32984 20.0129 6.13374 21.0331 6.1326C22.5097 6.11134 23.958 6.53205 25.1863 7.33907C26.4153 8.15425 27.4018 9.3186 28.146 10.8321L18.1356 16.2925C18.0323 15.8447 18.0375 15.3793 18.1507 14.9338C18.2751 14.4842 18.4859 14.0622 18.7717 13.6907C19.0918 13.2478 19.6133 12.8334 20.3363 12.4475L20.6233 12.2791C20.7613 12.1976 20.9352 12.1011 21.1421 11.9897C21.3491 11.8783 21.5699 11.756 21.8086 11.6228L22.5206 11.2261C23.1001 10.9019 23.7302 10.5513 24.4109 10.1745C23.9854 9.69714 23.4632 9.31258 22.8779 9.04552C22.2889 8.78426 21.6487 8.65392 21.0028 8.66374C20.3511 8.65531 19.7053 8.786 19.1098 9.04681C18.5144 9.30761 17.9833 9.69235 17.5533 10.1745C16.6095 11.1808 16.1372 12.4217 16.1362 13.8972C16.1353 15.3727 16.6054 16.6136 17.5464 17.6199C17.9749 18.1067 18.5063 18.4954 19.1033 18.759C19.7003 19.0225 20.3486 19.1545 21.0028 19.1456C22.3136 19.1456 23.4032 18.7235 24.2715 17.8794C24.5281 17.6695 24.7595 17.4315 24.9614 17.1702C25.1477 16.9241 25.3579 16.6965 25.5892 16.4908Z" fill="white"/>
<path d="M29.6654 15.6509C29.6654 13.8371 30.7003 12.9336 32.7575 12.9336C34.2753 12.9336 35.2412 13.5164 35.6358 14.6686C35.731 14.9471 35.6234 15.1455 35.3405 15.265L34.7486 15.4498C34.4657 15.5693 34.2781 15.477 34.1567 15.1781C33.9276 14.5789 33.4309 14.2841 32.6913 14.2841C31.7089 14.2841 31.2246 14.7216 31.2246 15.5829V17.5448C31.2246 18.4062 31.7089 18.8423 32.6913 18.8423C33.4309 18.8423 33.9331 18.538 34.1567 17.9293C34.2643 17.6576 34.4657 17.572 34.7486 17.6576L35.3543 17.8301C35.6634 17.9483 35.7572 18.148 35.6303 18.4252C35.1598 19.6045 34.1649 20.1914 32.632 20.1914C30.6547 20.1914 29.6599 19.2906 29.6599 17.4742L29.6654 15.6509Z" fill="white"/>
<path d="M36.229 15.5859C36.229 14.7517 36.4976 14.1027 37.0348 13.6389C37.5729 13.1756 38.3401 12.9365 39.3211 12.9365C40.3022 12.9365 41.0831 13.1756 41.635 13.6389C42.1594 14.1022 42.4284 14.7517 42.4284 15.5859V17.545C42.4284 18.3792 42.1525 19.0151 41.635 19.4783C41.0831 19.9552 40.3173 20.1943 39.3211 20.1943C38.3249 20.1943 37.5729 19.9552 37.0348 19.4783C36.4967 19.0015 36.229 18.3792 36.229 17.545V15.5859ZM40.8679 15.5859C40.8679 14.7517 40.3574 14.3278 39.3211 14.3278C38.2849 14.3278 37.7882 14.7517 37.7882 15.5859V17.545C37.7882 18.3792 38.3001 18.8031 39.3211 18.8031C40.3422 18.8031 40.8679 18.3792 40.8679 17.545V15.5859Z" fill="white"/>
</g>
<defs>
<radialGradient id="paint0_radial_6415_123328" cx="0" cy="0" r="1" gradientUnits="userSpaceOnUse" gradientTransform="translate(24.9021 9.3686) scale(8.04973 7.92628)">
<stop stop-color="#761719"/>
<stop offset="0.19" stop-color="#98181C"/>
<stop offset="0.43" stop-color="#BD1A20"/>
<stop offset="0.65" stop-color="#D71B22"/>
<stop offset="0.85" stop-color="#E71C23"/>
<stop offset="1" stop-color="#ED1C24"/>
</radialGradient>
<clipPath id="clip0_6415_123328">
<rect width="54" height="24" fill="white"/>
</clipPath>
</defs>
</svg>
