<svg width="54" height="24" viewBox="0 0 54 24" fill="none" xmlns="http://www.w3.org/2000/svg">
<g clip-path="url(#clip0_6415_123308)">
<path d="M49.8317 5.78906H49.7296H49.6288H49.577H49.5266H49.4762H49.4258H49.3754C48.3796 5.79043 47.4125 5.79043 46.6919 5.79728C44.2413 5.81372 41.9855 7.16319 41.2118 9.27439C40.9434 10.006 40.3536 11.7349 39.8741 13.2077C39.8278 13.1461 39.7801 13.0885 39.7297 13.031C39.9191 13.2611 39.994 13.805 40.1602 14.6271C41.1273 14.2174 42.4119 13.8681 43.8953 13.8434C44.4674 13.8338 45.801 13.8434 46.5625 13.8434C48.7216 13.8434 48.7937 12.8282 48.8455 11.3335H44.1664C44.5955 11.0883 45.0164 10.9897 45.5041 10.9897C46.4562 10.9897 48.0159 10.9979 48.6793 10.9897C49.9543 10.9732 50.7553 10.6787 51.0345 9.57717C51.1231 9.22918 51.2035 8.82092 51.2797 8.49485C50.5169 8.49211 47.2041 8.49485 45.6702 8.49485C46.0271 8.25921 46.5952 8.13728 47.17 8.11399C47.3062 8.10851 48.1957 8.11262 49.1738 8.11536C50.3371 8.12084 51.6257 8.12495 51.9132 8.11399C52.7754 8.08248 53.5941 7.74134 53.8597 6.46859C53.906 6.24802 53.9524 6.02882 54 5.79865C54 5.79728 51.9281 5.79043 49.8317 5.78906Z" fill="white"/>
<path d="M8.66235 19.2467H10.0804L13.5118 12.5117H12.2136L10.9481 15.3079C10.9032 15.4093 10.8623 15.5066 10.8282 15.5984C10.7942 15.6902 10.7656 15.7696 10.7424 15.8354C10.7193 15.9121 10.7002 15.9834 10.6825 16.0505H10.6648C10.6757 15.9834 10.6852 15.9135 10.6907 15.8354C10.6961 15.7696 10.7002 15.6929 10.7043 15.6039C10.707 15.5134 10.7084 15.4162 10.7084 15.3093L10.6321 12.5131H9.23856L9.78752 17.3287L8.66235 19.2467Z" fill="white"/>
<path d="M6.65969 10.3145H5.33564L3.9353 17.3276H5.25799L5.74021 14.8972H5.75655L6.6338 17.3276H8.11314L6.97708 14.7191L8.91139 12.512H7.53694L5.81785 14.63H5.80014L6.65969 10.3145Z" fill="white"/>
<path d="M1.27365 17.4171H1.28727H1.30362C1.64008 17.4158 1.93703 17.3651 2.19313 17.2651C2.45467 17.1637 2.67262 17.0308 2.84698 16.8678C3.02134 16.7047 3.15347 16.5129 3.24201 16.2951C3.33056 16.0786 3.37551 15.854 3.37551 15.6211C3.37551 15.4416 3.34282 15.2909 3.27607 15.1662C3.21068 15.0415 3.12895 14.936 3.03087 14.8484C2.9328 14.7621 2.82927 14.6867 2.71757 14.6209C2.60587 14.5552 2.50098 14.4922 2.40427 14.4291C2.30619 14.3675 2.22446 14.2976 2.15907 14.2236C2.09369 14.1497 2.06099 14.0551 2.06099 13.9428C2.06099 13.7633 2.12502 13.6154 2.25443 13.4962C2.38383 13.377 2.54049 13.3167 2.72438 13.3167C2.8606 13.3167 2.99001 13.3386 3.11124 13.3797C3.23112 13.4208 3.32647 13.4688 3.39458 13.5222L3.85091 12.781C3.69017 12.6673 3.50628 12.5796 3.30059 12.518C3.09762 12.4563 2.86605 12.4248 2.60723 12.4248H2.59634H2.58271C2.28984 12.4262 2.03103 12.4755 1.8049 12.5728C1.57605 12.6714 1.38262 12.7988 1.22461 12.9564C1.0666 13.1139 0.948085 13.2948 0.867715 13.4975C0.787346 13.6989 0.747843 13.9058 0.747843 14.114C0.747843 14.299 0.777811 14.4538 0.837747 14.5785C0.897684 14.7045 0.973966 14.81 1.06523 14.8963C1.1565 14.9826 1.25594 15.0552 1.36219 15.1155C1.46844 15.1744 1.56788 15.2347 1.65915 15.2936C1.75041 15.3539 1.8267 15.421 1.888 15.4964C1.94793 15.5704 1.9779 15.6635 1.9779 15.7772C1.9779 15.9499 1.91524 16.1047 1.78856 16.2417C1.66187 16.3787 1.49024 16.4472 1.27365 16.4472C1.10201 16.4472 0.949447 16.4253 0.813228 16.38C0.679733 16.3362 0.573482 16.2828 0.498562 16.2239L0 17.0637C0.132132 17.1651 0.314666 17.2486 0.546238 17.3185C0.772362 17.3815 1.01483 17.4158 1.27365 17.4171Z" fill="white"/>
<path d="M38.5285 8.13435C38.6648 7.98227 38.8364 7.85623 39.0421 7.75759C39.2478 7.66032 39.4807 7.60963 39.745 7.60963C40.0814 7.60963 40.3757 7.65347 40.629 7.73978C40.881 7.82746 41.0867 7.9261 41.2447 8.0357L42.0975 6.44511C41.8237 6.25879 41.4872 6.10261 41.0881 5.97794C40.6876 5.85189 40.204 5.78887 39.636 5.78887C38.9195 5.78887 38.3079 5.91765 37.797 6.17385C37.2862 6.43004 36.8653 6.75063 36.5343 7.13286C36.2033 7.5151 35.9581 7.9398 35.8001 8.40287C35.642 8.86731 35.563 9.30297 35.563 9.70713C35.563 10.1222 35.6298 10.473 35.7606 10.7566C35.8927 11.0402 36.0575 11.2868 36.2578 11.495C36.4566 11.7019 36.676 11.8882 36.913 12.0526C37.1486 12.217 37.3679 12.3746 37.5668 12.528C37.7671 12.6814 37.9333 12.85 38.064 13.0363C38.1948 13.2212 38.2602 13.4404 38.2602 13.6911C38.2602 14.2063 38.0899 14.6241 37.748 14.9461C37.4061 15.268 36.9675 15.4297 36.4294 15.4297C36.082 15.4297 35.7728 15.3831 35.499 15.29C35.2947 15.2215 35.1258 15.1475 34.9909 15.068C35.0536 14.9324 35.1067 14.7926 35.153 14.6515C35.3056 14.1761 35.3819 13.7309 35.3819 13.3158C35.3819 12.8993 35.311 12.5472 35.168 12.2567C35.025 11.9677 34.8452 11.7169 34.6245 11.5032C34.4025 11.2895 34.1682 11.1045 33.9216 10.9456C33.675 10.7867 33.4408 10.6291 33.2187 10.4702C32.9967 10.3113 32.8169 10.1401 32.6738 9.95373C32.5322 9.76878 32.46 9.5441 32.46 9.28105C32.46 9.07418 32.494 8.86868 32.5635 8.66728C32.6316 8.46452 32.7338 8.28642 32.8714 8.13298C33.0089 7.9809 33.1792 7.85486 33.3849 7.75622C33.5892 7.65895 33.8235 7.60826 34.0864 7.60826C34.4229 7.60826 34.7185 7.6521 34.9705 7.73841C35.2239 7.82609 35.4282 7.92473 35.5862 8.03433L36.4389 6.44374C36.1651 6.25742 35.8287 6.10124 35.4282 5.97657C35.0291 5.85052 34.5441 5.7875 33.9761 5.7875C33.2596 5.7875 32.648 5.91628 32.1385 6.17248C31.6277 6.42867 31.2068 6.74926 30.8757 7.13149C30.5556 7.50003 30.3172 7.90692 30.1606 8.35218C30.1429 8.27409 30.1252 8.19874 30.1047 8.12339C29.9781 7.64662 29.7778 7.23698 29.504 6.89448C29.2302 6.54923 28.8829 6.27934 28.4619 6.08206C28.041 5.88614 27.5316 5.7875 26.9322 5.7875C26.1013 5.7875 25.3698 5.97383 24.7391 6.3451C24.1084 6.71638 23.5608 7.21369 23.099 7.83705C22.8715 8.14668 22.6658 8.49192 22.4778 8.87279C22.5201 8.6755 22.5405 8.47274 22.5405 8.26313C22.5405 7.90144 22.4642 7.57127 22.3116 7.27123C22.1591 6.96983 21.9302 6.70953 21.6237 6.49169C21.32 6.27386 20.9386 6.10124 20.4809 5.9752C20.0245 5.84915 19.4892 5.78613 18.8789 5.78613C18.1842 5.78613 17.5426 5.84367 16.9541 5.95876C16.3643 6.07384 15.8549 6.2355 15.423 6.44237L13.3716 16.7422C13.7285 16.9504 14.2025 17.1121 14.791 17.2272C15.3808 17.3409 16.0374 17.3984 16.7648 17.3984C17.6584 17.3984 18.4417 17.2957 19.1159 17.0861C19.7889 16.8792 20.346 16.5449 20.7887 16.0873C21.0829 15.7804 21.3254 15.3982 21.5148 14.9379C21.5257 14.9105 21.5379 14.8803 21.5488 14.8502C21.5638 14.9159 21.5815 14.9817 21.5992 15.0447C21.7368 15.5297 21.9439 15.9476 22.2231 16.2983C22.501 16.649 22.8538 16.9189 23.2802 17.1093C23.7065 17.3011 24.2092 17.3957 24.7867 17.3957C25.6381 17.3957 26.3832 17.2135 27.0194 16.8463C27.6555 16.4805 28.1949 15.9846 28.6363 15.3612C28.8883 15.0009 29.1172 14.5858 29.3228 14.1158C29.5285 13.6459 29.7015 13.1555 29.8432 12.6486C29.9849 12.1389 30.0966 11.6306 30.1742 11.1237C30.1837 11.0648 30.1919 11.0059 30.2001 10.9484C30.3132 11.1511 30.4453 11.3333 30.5979 11.4923C30.7981 11.6991 31.0174 11.8855 31.2531 12.0499C31.4901 12.2143 31.708 12.3718 31.9083 12.5253C32.1085 12.6787 32.2734 12.8472 32.4055 13.0335C32.5376 13.2185 32.603 13.4377 32.603 13.6884C32.603 14.2035 32.4327 14.6214 32.0895 14.9433C31.7475 15.2653 31.3089 15.427 30.7722 15.427C30.4249 15.427 30.1143 15.3804 29.8405 15.2872C29.568 15.1954 29.3569 15.0927 29.2098 14.9844L28.278 16.7381C28.5518 16.9463 28.9224 17.108 29.391 17.2231C29.8595 17.3368 30.414 17.3943 31.0556 17.3943C31.8552 17.3943 32.5308 17.2573 33.0839 16.9833C33.5429 16.7559 33.9271 16.4832 34.2376 16.1668L33.9339 16.7381C34.2077 16.9463 34.5782 17.108 35.0468 17.2231C35.514 17.3368 36.0698 17.3943 36.7114 17.3943C37.511 17.3943 38.188 17.2573 38.7397 16.9833C39.2914 16.7107 39.7368 16.3709 40.0733 15.9667C40.4097 15.5626 40.6536 15.1228 40.8075 14.6474C40.9587 14.172 41.1085 13.7692 41.0282 13.0842C40.862 12.2622 40.6031 11.8718 40.4138 11.6416C40.4111 11.6389 40.4097 11.6361 40.407 11.6334L40.4084 11.6361C40.3661 11.5895 40.3239 11.543 40.2789 11.5005C40.0569 11.2868 39.8226 11.1018 39.5761 10.9429C39.3295 10.784 39.0952 10.6264 38.8745 10.4675C38.6539 10.3086 38.4727 10.1373 38.331 9.95099C38.1893 9.76604 38.1185 9.54136 38.1185 9.27831C38.1185 9.07144 38.1526 8.86594 38.2207 8.66454C38.2888 8.46452 38.391 8.28779 38.5285 8.13435ZM19.1704 14.2268C19.0805 14.5378 18.9511 14.8022 18.7836 15.0214C18.5738 15.2954 18.3123 15.4941 18.003 15.6201C17.6925 15.7462 17.3424 15.8092 16.9528 15.8092C16.7416 15.8092 16.5632 15.7955 16.4161 15.7681C16.269 15.7407 16.1368 15.6996 16.0224 15.6462L16.7321 12.0225H16.8506H17.04H17.2375H17.3628C18.0466 12.0225 18.5411 12.128 18.8462 12.3417C19.1514 12.5554 19.3039 12.8856 19.3039 13.3336C19.3053 13.6172 19.2603 13.9145 19.1704 14.2268ZM19.4933 10.0853C19.2821 10.3045 19.0274 10.4675 18.7291 10.5771C18.428 10.6867 18.0521 10.7415 17.5998 10.7415C17.5576 10.7415 17.4582 10.7442 17.3001 10.7497C17.247 10.7511 17.2021 10.7525 17.1626 10.7525C17.0822 10.7525 17.0291 10.7483 17.0005 10.7415L17.6475 7.42879C17.7728 7.38495 17.9199 7.35069 18.0902 7.32192C18.2591 7.29452 18.4471 7.28082 18.6582 7.28082C19.605 7.28082 20.0777 7.65347 20.0777 8.39739C20.0777 8.69194 20.0286 8.99609 19.9278 9.30708C19.8284 9.61808 19.6826 9.87838 19.4933 10.0853ZM21.8512 10.4867L21.512 11.9868C21.493 12.1143 21.4753 12.2417 21.4589 12.365C21.4031 12.2732 21.3431 12.1855 21.2764 12.1019C21.1184 11.9046 20.9345 11.7402 20.7233 11.6087C20.5136 11.4786 20.2929 11.3799 20.0613 11.3155V11.2826C20.3869 11.2059 20.7002 11.0744 20.9999 10.8895C21.3009 10.7031 21.5665 10.4784 21.7967 10.2168C21.8866 10.114 21.9697 10.0058 22.046 9.89208C21.9765 10.088 21.9125 10.2866 21.8512 10.4867ZM27.7304 10.2332C27.6732 10.6374 27.5956 11.047 27.5016 11.4621C27.4076 11.8772 27.3027 12.2841 27.1869 12.6842C27.0711 13.0829 26.9499 13.424 26.8246 13.709C26.6134 14.2118 26.3642 14.6241 26.0754 14.9475C25.7852 15.2694 25.442 15.4311 25.0415 15.4311C24.6097 15.4311 24.3127 15.2776 24.1492 14.9721C23.9858 14.6666 23.9054 14.2789 23.9054 13.809C23.9054 13.4911 23.9367 13.1281 23.9994 12.7184C24.0621 12.3088 24.1411 11.8909 24.2364 11.4635C24.3304 11.0374 24.4407 10.6278 24.5674 10.2346C24.6941 9.84139 24.8194 9.5071 24.9461 9.23447C25.1668 8.74263 25.4202 8.33848 25.7035 8.022C25.9868 7.70416 26.3301 7.54524 26.7292 7.54524C27.1393 7.54524 27.424 7.69868 27.5806 8.00419C27.7373 8.31108 27.8176 8.69879 27.8176 9.16871C27.8163 9.47285 27.7877 9.82906 27.7304 10.2332Z" fill="white"/>
</g>
<defs>
<clipPath id="clip0_6415_123308">
<rect width="54" height="24" fill="white"/>
</clipPath>
</defs>
</svg>
